<svg width="1600" height="900" viewBox="0 0 1600 900" xmlns="http://www.w3.org/2000/svg" role="img" aria-label="Dev Talk screenshot placeholder">
  <rect width="1600" height="900" fill="#f5f5f7"/>
  <rect x="120" y="110" width="1360" height="680" rx="28" fill="#ffffff"/>
  <rect x="120" y="110" width="1360" height="80" rx="28" fill="#111111"/>
  <circle cx="165" cy="150" r="10" fill="#ff5f57"/>
  <circle cx="195" cy="150" r="10" fill="#febc2e"/>
  <circle cx="225" cy="150" r="10" fill="#28c840"/>
  <rect x="170" y="240" width="1260" height="150" rx="18" fill="#f5f5f7"/>
  <rect x="170" y="420" width="610" height="320" rx="18" fill="#ffffff" stroke="rgba(0,0,0,0.06)"/>
  <rect x="820" y="420" width="610" height="320" rx="18" fill="#ffffff" stroke="rgba(0,0,0,0.06)"/>
  <rect x="230" y="470" width="360" height="18" rx="9" fill="rgba(0,0,0,0.12)"/>
  <rect x="230" y="510" width="420" height="18" rx="9" fill="rgba(0,0,0,0.12)"/>
  <rect x="230" y="560" width="300" height="18" rx="9" fill="rgba(0,0,0,0.12)"/>
  <rect x="880" y="470" width="360" height="18" rx="9" fill="rgba(0,0,0,0.12)"/>
  <rect x="880" y="510" width="420" height="18" rx="9" fill="rgba(0,0,0,0.12)"/>
  <rect x="880" y="560" width="300" height="18" rx="9" fill="rgba(0,0,0,0.12)"/>
</svg>

