<svg width="1600" height="900" viewBox="0 0 1600 900" xmlns="http://www.w3.org/2000/svg" role="img" aria-label="Dev Talk screenshot placeholder">
  <rect width="1600" height="900" fill="#f5f5f7"/>
  <rect x="120" y="110" width="1360" height="680" rx="28" fill="#ffffff"/>
  <rect x="120" y="110" width="1360" height="80" rx="28" fill="#111111"/>
  <circle cx="165" cy="150" r="10" fill="#ff5f57"/>
  <circle cx="195" cy="150" r="10" fill="#febc2e"/>
  <circle cx="225" cy="150" r="10" fill="#28c840"/>
  <rect x="170" y="240" width="300" height="500" rx="18" fill="#f5f5f7"/>
  <rect x="510" y="240" width="920" height="80" rx="18" fill="#f5f5f7"/>
  <rect x="510" y="340" width="920" height="400" rx="18" fill="#ffffff"/>
  <rect x="560" y="390" width="420" height="18" rx="9" fill="rgba(0,0,0,0.12)"/>
  <rect x="560" y="430" width="620" height="18" rx="9" fill="rgba(0,0,0,0.12)"/>
  <rect x="560" y="470" width="520" height="18" rx="9" fill="rgba(0,0,0,0.12)"/>
  <rect x="560" y="520" width="760" height="18" rx="9" fill="rgba(0,0,0,0.12)"/>
  <rect x="560" y="560" width="480" height="18" rx="9" fill="rgba(0,0,0,0.12)"/>
  <rect x="170" y="760" width="1260" height="12" rx="6" fill="rgba(0,0,0,0.06)"/>
  <rect x="170" y="785" width="820" height="12" rx="6" fill="rgba(0,0,0,0.06)"/>
</svg>

